<?xml version="1.0" encoding="UTF-8" standalone="no"?>
<!-- Created with Inkscape (http://www.inkscape.org/) -->

<svg
   xmlns:dc="http://purl.org/dc/elements/1.1/"
   xmlns:cc="http://creativecommons.org/ns#"
   xmlns:rdf="http://www.w3.org/1999/02/22-rdf-syntax-ns#"
   xmlns:svg="http://www.w3.org/2000/svg"
   xmlns="http://www.w3.org/2000/svg"
   xmlns:sodipodi="http://sodipodi.sourceforge.net/DTD/sodipodi-0.dtd"
   xmlns:inkscape="http://www.inkscape.org/namespaces/inkscape"
   version="1.1"
   id="svg10"
   width="132.48"
   height="100.08"
   viewBox="0 0 132.48 100.08"
   sodipodi:docname="gc.svg"
   inkscape:version="0.92.4 (5da689c313, 2019-01-14)">
  <metadata
     id="metadata16">
    <rdf:RDF>
      <cc:Work
         rdf:about="">
        <dc:format>image/svg+xml</dc:format>
        <dc:type
           rdf:resource="http://purl.org/dc/dcmitype/StillImage" />
        <dc:title></dc:title>
      </cc:Work>
    </rdf:RDF>
  </metadata>
  <defs
     id="defs14" />
  <sodipodi:namedview
     pagecolor="#ffffff"
     bordercolor="#666666"
     borderopacity="1"
     objecttolerance="10"
     gridtolerance="10"
     guidetolerance="10"
     inkscape:pageopacity="0"
     inkscape:pageshadow="2"
     inkscape:window-width="2560"
     inkscape:window-height="1377"
     id="namedview12"
     showgrid="false"
     inkscape:zoom="11.313709"
     inkscape:cx="74.820615"
     inkscape:cy="53.562328"
     inkscape:window-x="1912"
     inkscape:window-y="-8"
     inkscape:window-maximized="1"
     inkscape:current-layer="svg10"
     showguides="false" />
  <path
     style="fill:#000000;stroke-width:0.31999999"
     d="m 117.67098,98.601273 c -1.70274,-0.89608 -2.78543,-2.13978 -3.85839,-4.432182 -2.10093,-4.488689 -3.83996,-11.668309 -4.7661,-19.677003 -0.25441,-2.2 -0.77451,-5.008 -1.15577,-6.24 -0.87529,-2.828362 -2.46347,-6.004909 -2.87509,-5.750512 -0.6261,0.38695 -1.572,2.690982 -2.05057,4.9948 -0.65176,3.137539 -2.0902,5.970902 -4.164497,8.203011 -7.162685,7.707597 -19.149817,7.103523 -25.531277,-1.286611 -5.55454,-7.302928 -4.027065,-18.075558 3.328589,-23.475104 1.681197,-1.234112 4.113117,-4.04143 4.113117,-4.748029 0,-0.449197 -2.985552,-1.159757 -8.32,-1.980157 -3.921082,-0.603036 -11.309763,-0.672988 -14.56,-0.137849 -3.000797,0.49407 -7.573146,1.572941 -8.126218,1.917421 -0.759206,0.472873 0.739066,2.41943 3.346391,4.347641 4.06991,3.00984 6.156201,6.26289 7.104889,11.078295 0.684346,3.473644 0.230052,6.445078 -1.543708,10.097075 -5.049069,10.395536 -18.491712,12.610221 -26.724388,4.402861 -2.166683,-2.16002 -4.042715,-5.583376 -4.59967,-8.393412 -0.184291,-0.929814 -0.651054,-2.297814 -1.037252,-3.04 l -0.702178,-1.34943 -0.413689,1.76 c -0.22753,0.968 -0.560311,3.416 -0.739514,5.44 -0.524986,5.929414 -2.183309,16.784883 -2.933066,19.2 -1.29369,4.167243 -5.763382,8.960015 -8.356019,8.960015 -1.360191,0 -4.0182171,-1.6125 -5.7610439,-3.49497 C 3.7249081,91.086424 1.6143644,85.294837 1.0393049,77.692088 0.41621915,69.454392 0.85775561,39.575883 1.7037116,32.732091 c 0.4467737,-3.614404 1.4543665,-6.839565 3.0158555,-9.653326 1.473652,-2.655481 5.9580979,-7.246575 8.4714249,-8.672892 1.306954,-0.741697 1.956188,-1.372856 2.522156,-2.451934 0.977039,-1.86283 3.476976,-4.2000814 5.408331,-5.0563814 1.86974,-0.828981 5.515462,-1.101406 7.706242,-0.575846 1.479556,0.35494 1.844472,0.317088 4.113431,-0.426679 9.764922,-3.2009506 20.707738,-4.7990885 32.88984,-4.8033775 11.208496,-0.0039 20.285811,1.2554081 29.769941,4.1301745 2.72072,0.824689 3.836836,1.031014 4.406217,0.814534 0.4194,-0.159454 2.65893,-0.299524 4.97675,-0.311265 5.29952,-0.02684 7.07821,0.531835 9.48612,2.979557 0.88053,0.895089 2.19587,2.0940014 2.92299,2.6642504 1.50784,1.182543 2.46129,2.916502 2.19447,3.990895 -0.1483,0.59714 0.11841,0.968527 1.44509,2.012292 2.1963,1.72794 4.88264,5.159826 6.2274,7.955694 2.9719,6.178818 4.00463,16.634621 4.00891,40.587911 0.002,8.656864 -0.12524,12.715056 -0.48239,15.439497 -1.27952,9.760733 -3.65422,15.136028 -7.58276,17.164028 -1.45594,0.7516 -4.18362,0.79205 -5.53275,0.082 z m 6.2198,-1.17782 c 2.99419,-1.98146 4.97197,-7.006869 6.31713,-16.051365 0.47534,-3.196026 0.56218,-5.745088 0.51784,-15.2 -0.0555,-11.827693 -0.59706,-25.918138 -1.05466,-27.438969 l -0.2651,-0.88103 -0.0275,0.913811 c -0.14738,4.896434 -4.41936,12.318921 -9.08681,15.78815 -2.36018,1.754281 -6.419,3.70742 -8.86069,4.263846 -2.01152,0.458397 -3.99921,1.372675 -5.02366,2.310736 l -0.70367,0.64432 1.06671,2.119568 c 1.58382,3.147107 2.4063,6.133226 2.91948,10.599568 0.88095,7.66705 2.68971,15.237866 4.61572,19.319633 1.12161,2.377052 1.41988,2.755252 3.05064,3.868132 1.11772,0.76276 1.51659,0.85496 3.23747,0.74831 1.47032,-0.0911 2.29747,-0.34317 3.29711,-1.00471 z M 15.45613,96.913503 c 2.758623,-1.83005 5.141133,-5.796087 5.921284,-9.856842 0.821106,-4.273933 2.004242,-12.561008 2.364904,-16.564573 0.19026,-2.112 0.571321,-4.745014 0.846803,-5.851142 0.45842,-1.840672 0.456937,-2.078202 -0.0175,-2.802288 C 23.590163,60.340766 20.620722,58.32052 18.303611,57.574245 13.83235,56.134178 10.0452,53.611992 7.1890151,50.172088 c -1.865437,-2.246675 -4.373178,-7.054035 -4.7574133,-9.12 l -0.2380591,-1.28 -0.2618001,1.12 c -0.14399,0.616 -0.3547103,8.032 -0.4682672,16.48 -0.289233,21.517328 0.1679525,26.274243 3.1135667,32.395997 2.068216,4.298296 6.1129029,8.082998 8.6390879,8.083768 0.453826,1.4e-4 1.461826,-0.42212 2.24,-0.93835 z m 73.574862,-16.67577 c 6.597481,-1.0452 12.024758,-6.33272 13.290518,-12.948259 0.53523,-2.79738 1.03555,-3.879524 2.58832,-5.598256 1.54998,-1.715642 3.51946,-2.794432 6.43995,-3.527511 4.22708,-1.061049 7.52262,-2.939446 10.6412,-6.065286 2.99532,-3.002298 4.45265,-5.223104 5.6085,-8.546762 4.48614,-12.899897 -2.58334,-26.508193 -15.70292,-30.227123 -3.55444,-1.007556 -8.57672,-1.007556 -12.131155,0 -7.967885,2.258611 -13.849162,8.100768 -16.210211,16.102393 -0.57992,1.965359 -0.701028,3.25209 -0.747783,7.945161 -0.04903,4.921598 -0.140499,5.815102 -0.755011,7.375624 -1.011123,2.567683 -2.344723,4.526499 -3.930429,5.773075 -4.023597,3.163088 -6.23591,6.328179 -7.158249,10.241081 -2.116615,8.979485 3.808316,17.896042 12.94727,19.484631 2.07705,0.361046 2.793398,0.359821 5.12,-0.0088 z m -6.616941,-6.762842 -3.576937,-1.642739 -1.497754,-3.981155 -1.497757,-3.981152 1.684893,-3.651357 c 0.926691,-2.008246 1.842304,-3.78167 2.034694,-3.940944 0.460967,-0.381616 7.192132,-2.905456 7.748948,-2.905456 0.237795,0 2.062003,0.768685 4.053795,1.708186 l 3.62144,1.708185 1.47812,3.917853 1.47812,3.917853 -1.60284,3.573961 c -0.88157,1.96568 -1.77046,3.748154 -1.97531,3.961056 -0.45753,0.475488 -7.047431,2.975687 -7.816801,2.965677 -0.305619,-0.004 -2.165292,-0.746461 -4.132611,-1.649968 z m 8.061943,-0.281216 3.524999,-1.30343 1.63227,-3.619367 1.63228,-3.619363 -1.32527,-3.639715 -1.32527,-3.639712 -2.392005,-1.186378 c -1.315603,-0.652505 -2.998944,-1.426134 -3.740755,-1.719177 l -1.348752,-0.5328 -3.64656,1.351331 -3.646563,1.351331 -1.648003,3.615114 -1.648007,3.61511 1.377095,3.754618 1.377094,3.754621 3.346224,1.535123 c 1.840423,0.844317 3.562221,1.546598 3.826221,1.560624 0.264,0.01402 2.06625,-0.561043 4.005002,-1.27793 z m -6.191156,-3.548221 c -2.50455,-1.239721 -3.832646,-4.42998 -2.953337,-7.09431 0.485715,-1.471734 2.512061,-3.290064 4.161357,-3.734173 1.512659,-0.407318 3.475603,-9.6e-4 4.902444,1.015152 2.332251,1.660707 2.862341,5.733552 1.054682,8.103511 -1.726262,2.263244 -4.641613,2.958937 -7.165146,1.70982 z m 5.329991,-0.818105 c 2.339261,-1.732547 3.050464,-4.961309 1.575075,-7.150637 -3.034397,-4.502746 -9.955997,-2.086029 -9.438886,3.295642 0.177196,1.844121 0.94806,3.002736 2.67006,4.013126 1.520676,0.892262 3.872189,0.820666 5.193751,-0.158131 z m -1.063837,-21.85369 c -4.949674,-2.466809 -2.975613,-9.956462 2.503837,-9.499643 2.812074,0.234438 4.536164,2.141691 4.536164,5.018072 0,2.26689 -0.67095,3.349645 -2.72654,4.4 -1.734533,0.886304 -2.663509,0.903872 -4.313461,0.08157 z M 92.32127,46.53333 c 3.419323,-1.456954 3.737153,-6.216496 0.529993,-7.936515 -3.046885,-1.634059 -6.503349,0.426634 -6.503349,3.877203 0,1.785081 0.863219,3.19222 2.432896,3.965884 1.294688,0.638125 2.205689,0.662167 3.54046,0.09343 z m 11.10764,-4.340231 c -2.31632,-0.704592 -4.432261,-2.587699 -5.334777,-4.747748 -0.62213,-1.488954 -0.58956,-4.444386 0.0671,-6.085435 0.66376,-1.658912 3.288127,-4.091651 4.895587,-4.538123 3.51234,-0.975547 7.05821,0.212404 8.92985,2.991708 2.52462,3.748945 2.0332,7.708752 -1.32334,10.663291 -2.05071,1.80511 -4.79899,2.45712 -7.23438,1.716307 z m 5.96883,-1.488096 c 0.9334,-0.577075 1.91085,-1.555615 2.49066,-2.493445 2.42814,-3.927419 0.25064,-9.615159 -4.13491,-10.800562 -3.10319,-0.838789 -6.72478,0.449361 -8.406031,2.989919 -0.699366,1.056817 -0.892116,1.767457 -0.986536,3.637086 -0.10368,2.053337 -0.0153,2.511145 0.759986,3.935573 0.892631,1.640044 2.538451,3.039628 4.192831,3.565509 1.75867,0.559031 4.42107,0.194029 6.084,-0.83408 z m 9.0615,-2.292914 c -0.91593,-0.820931 -0.98934,-1.051839 -1.0936,-3.439999 -0.0812,-1.859961 -0.34601,-3.12211 -0.96839,-4.61561 -1.00995,-2.423519 -0.90818,-3.673505 0.39771,-4.884929 1.22553,-1.136875 2.21169,-1.295558 3.76934,-0.606533 2.22157,0.982705 3.60512,3.554312 3.88823,7.227073 0.22108,2.868111 -0.29433,4.77678 -1.65822,6.14067 -1.3851,1.385097 -2.91897,1.448549 -4.33507,0.179328 z m 3.34126,-0.124339 c 1.93158,-0.880086 2.72518,-5.670737 1.48579,-8.969101 -0.86219,-2.294519 -1.7478,-3.420866 -3.15054,-4.006968 -1.39928,-0.584656 -2.75933,-0.106407 -3.43986,1.209593 -0.63414,1.226292 -0.59576,1.606694 0.39349,3.900459 0.60671,1.406772 0.88232,2.647142 0.93997,4.230357 0.0449,1.232 0.0906,2.415402 0.1016,2.629779 0.0234,0.4559 1.53575,1.338854 2.32497,1.357407 0.29972,0.007 0.90478,-0.151139 1.34458,-0.351526 z M 96.108393,24.69027 c -1.0632,-0.744689 -1.67845,-2.379278 -1.33989,-3.559773 0.49232,-1.716615 1.33783,-2.615697 3.42707,-3.644228 2.376927,-1.170161 5.923397,-1.584802 7.919737,-0.925949 2.71715,0.89674 3.97831,3.076853 2.94068,5.083413 -0.67377,1.302926 -1.19588,1.535768 -3.86501,1.723655 -1.40001,0.09855 -2.98637,0.473993 -4.23036,1.001192 -2.284517,0.968184 -3.787017,1.067795 -4.852227,0.32169 z m 4.852227,-0.964252 c 1.292,-0.549212 2.80803,-0.901048 4.32076,-1.00275 2.00488,-0.13479 2.41835,-0.268479 2.96,-0.95708 0.74971,-0.9531 0.79239,-1.711079 0.16469,-2.924913 -0.66942,-1.294507 -2.13983,-1.789182 -5.31833,-1.789182 -2.4201,0 -2.963,0.11308 -4.608947,0.96 -2.22417,1.144444 -3.09669,2.209981 -3.14284,3.838077 -0.0267,0.941697 0.15804,1.369155 0.8483,1.962892 1.14258,0.982802 2.30964,0.961533 4.776367,-0.08704 z M 47.529136,79.774754 c 7.316867,-1.905802 12.086493,-8.00761 12.133667,-15.522666 0.03606,-5.745133 -2.516291,-10.289757 -7.910121,-14.084451 -1.219226,-0.857757 -1.864349,-1.647255 -2.72,-3.328723 -1.081165,-2.124634 -1.117328,-2.309456 -1.000928,-5.115549 0.06642,-1.601203 0.125628,-4.927275 0.131574,-7.391274 0.01011,-4.191557 -0.05075,-4.648234 -0.945312,-7.092952 -1.317891,-3.601625 -2.759485,-5.897347 -5.387024,-8.578782 -4.219373,-4.30592 -9.26369,-6.539099 -15.36,-6.800053 -4.523412,-0.193626 -7.38132,0.390424 -11.2,2.288865 -4.816038,2.394272 -7.9631829,5.466361 -10.4087029,10.16046 -1.705752,3.274138 -2.5402032,6.695099 -2.5463827,10.43929 -0.017377,10.528676 6.3285007,19.054209 16.7081236,22.446958 1.761658,0.575827 2.578056,1.100678 4.491122,2.88727 2.585145,2.41424 3.840213,4.515591 4.572911,7.656387 1.353116,5.800288 5.826775,10.45506 11.564151,12.032304 2.10096,0.577572 5.66561,0.57889 7.876922,0.0029 z m -6.96,-7.273869 c -0.340074,-0.485527 -0.498144,-1.450163 -0.498144,-3.04 v -2.328797 h -2.168797 c -3.081757,0 -3.591203,-0.424749 -3.591203,-2.994144 0,-1.127222 0.167341,-2.165197 0.384,-2.381856 0.233027,-0.233027 1.365334,-0.384 2.88,-0.384 h 2.496 V 58.87325 c 0,-3.358365 0.262733,-3.680842 3.130934,-3.842909 1.95057,-0.110218 2.328004,-0.03932 2.914887,0.547568 0.573209,0.573209 0.674179,1.057584 0.674179,3.234179 v 2.56 h 2.548742 c 2.968192,0 3.211258,0.2164 3.211258,2.858963 0,2.368003 -0.646758,2.901037 -3.52,2.901037 h -2.24 v 2.510403 c 0,3.253799 -0.304957,3.569597 -3.447053,3.569597 -1.989875,0 -2.339405,-0.08959 -2.774803,-0.711203 z m 5.513866,-3.048797 0.09201,-2.96 h 2.326832 c 3.078022,0 3.47657,-0.305872 3.348314,-2.569718 l -0.09917,-1.750282 -2.72,-0.16 -2.72,-0.16 -0.09398,-2.704051 c -0.05169,-1.487229 -0.249318,-2.891229 -0.43918,-3.12 -0.46617,-0.561703 -4.227514,-0.561703 -4.693684,0 -0.189862,0.228771 -0.387494,1.632771 -0.43918,3.12 l -0.09398,2.704051 -2.8,0.09246 -2.8,0.09246 v 2.033303 c 0,2.404307 0.02443,2.421779 3.386173,2.421779 h 2.373827 v 2.656 c 0,1.685542 0.144867,2.800867 0.396477,3.052477 0.259773,0.259773 1.170013,0.364589 2.64,0.304 l 2.243523,-0.09248 z m -25.85201,-25.780618 -3.68,-1.693491 -1.471657,-3.982946 -1.471657,-3.982942 1.339482,-2.887571 c 0.736715,-1.588164 1.544702,-3.316163 1.795527,-3.839999 0.385488,-0.805073 1.00005,-1.159649 3.972175,-2.291777 1.933872,-0.73664 3.828566,-1.34864 4.210432,-1.359999 0.381866,-0.01136 2.325866,0.749481 4.32,1.690754 l 3.625698,1.711407 1.39401,3.901136 1.394009,3.901136 -0.652643,1.507456 c -0.35895,0.829101 -1.148938,2.574793 -1.755523,3.87932 l -1.102881,2.371862 -3.638486,1.371091 c -2.001167,0.754099 -3.854486,1.377159 -4.118486,1.384573 -0.264,0.0074 -2.136,-0.748589 -4.16,-1.68001 z m 7.887943,-0.253708 3.567942,-1.319344 1.673321,-3.626284 1.673322,-3.626281 -1.379085,-3.721458 -1.379088,-3.721458 -3.062178,-1.435527 c -1.684197,-0.78954 -3.422177,-1.507054 -3.862177,-1.594477 -0.481443,-0.09566 -2.13794,0.336657 -4.16,1.08568 l -3.36,1.244632 -1.659774,3.334422 c -0.912876,1.833933 -1.668876,3.608046 -1.68,3.942475 -0.02228,0.669746 2.169665,6.885834 2.603723,7.383844 0.306073,0.351168 6.639898,3.330124 7.136051,3.356262 0.176,0.0093 1.925574,-0.576848 3.887943,-1.302486 z M 22.78892,42.513099 c -2.733761,-0.831574 -4.835531,-2.953858 -5.632796,-5.68778 -2.050288,-7.030695 5.977777,-12.908318 12.11733,-8.871516 2.481911,1.631875 4.072063,5.082896 3.626367,7.870117 -0.749185,4.685144 -5.772902,8.008738 -10.110901,6.689179 z m 5.947028,-1.45872 c 2.892592,-1.69517 4.193348,-5.186801 3.20229,-8.595925 -0.400103,-1.376303 -0.849548,-2.054814 -2.114396,-3.192021 -6.59883,-5.932913 -15.97775,2.439433 -10.963711,9.787051 0.84723,1.241538 2.331995,2.327193 3.855355,2.81902 1.563011,0.50463 4.427594,0.11536 6.020462,-0.818125 z M 21.93878,39.447494 c -1.534396,-0.919728 -2.667788,-2.923122 -2.667788,-4.715602 0,-4.944684 5.823683,-7.512359 9.388568,-4.139443 1.306656,1.236293 1.811432,2.377588 1.811432,4.095635 0,4.362856 -4.762111,7.019242 -8.532212,4.75941 z m 4.438986,0.15142 c 2.584425,-0.717775 4.210591,-3.644066 3.453277,-6.21418 -1.517243,-5.149109 -8.733407,-4.954069 -9.911148,0.267882 -0.666687,2.956002 1.725397,6.075898 4.791097,6.248826 0.264,0.01488 1.014048,-0.121245 1.666774,-0.302528 z m -2.325462,-0.95391 c -2.19501,-0.602637 -3.181312,-1.896911 -3.181312,-4.17467 0,-1.12239 0.196708,-1.530246 1.242353,-2.57589 1.093323,-1.093324 1.424123,-1.242353 2.757647,-1.242353 1.333524,0 1.664324,0.149029 2.757647,1.242353 1.045645,1.045644 1.242353,1.4535 1.242353,2.57589 0,1.564082 -0.688126,3.053737 -1.647916,3.5674 -1.158743,0.620141 -2.316357,0.841846 -3.170772,0.60727 z m 2.619788,-0.814169 c 1.186378,-0.613497 2.004869,-2.406943 1.740824,-3.814421 -0.222981,-1.188589 -1.576033,-2.5557 -2.819229,-2.848523 -1.249461,-0.294298 -2.991849,0.53406 -3.754492,1.784942 -0.772888,1.26769 -0.805723,1.910585 -0.166391,3.257878 0.915137,1.928508 3.059255,2.623356 4.999288,1.620124 z m -3.620051,-1.058201 c -2.084042,-1.86209 -0.889708,-4.840543 1.941015,-4.840543 2.638915,0 3.706383,3.045061 1.696887,4.840543 -0.565976,0.505702 -1.384504,0.919455 -1.818951,0.919455 -0.434447,0 -1.252975,-0.413753 -1.818951,-0.919455 z m 3.478327,-0.416323 c 0.440638,-0.413959 0.740624,-1.067923 0.740624,-1.614547 0,-1.157139 -1.28454,-2.489673 -2.4,-2.489673 -0.456,0 -1.182546,0.353456 -1.614546,0.785456 -2.203315,2.203314 1.002302,5.452836 3.273922,3.318764 z m 27.022918,7.930619 c 8.376688,-1.874858 16.042864,-1.700704 25.715066,0.584163 1.05455,0.249117 1.954218,0.416083 1.999264,0.37104 0.04505,-0.04505 0.356294,-1.154768 0.691664,-2.466048 0.500534,-1.957069 0.551696,-2.697616 0.28561,-4.13407 -0.384132,-2.07373 -0.13441,-6.107474 0.544166,-8.789924 0.267136,-1.056 1.156586,-3.287999 1.976554,-4.959999 1.257232,-2.563624 1.946428,-3.495574 4.398118,-5.947264 2.45169,-2.451691 3.383638,-3.140885 5.947265,-4.398117 3.40377,-1.669247 5.687147,-2.334337 9.065217,-2.640449 1.98227,-0.179629 5.52558,0.134149 7.73477,0.684953 1.10171,0.274681 -2.39118,-1.479653 -6.15273,-3.0902674 C 97.440023,5.9392616 87.171494,3.290763 77.350992,2.1740342 59.901594,0.18979103 38.021757,3.392396 24.278938,9.9423146 l -2.832054,1.3497774 4.272054,0.02701 c 3.666671,0.02318 4.61971,0.141868 6.725382,0.837543 3.987277,1.317324 6.514221,2.915657 9.753715,6.169387 2.496976,2.507946 3.138698,3.382613 4.367571,5.952983 2.136797,4.469436 2.592621,6.787302 2.310324,11.748024 -0.459719,8.078539 -0.360215,9.611252 0.600051,9.242766 0.241779,-0.09278 2.076566,-0.535072 4.077305,-0.982875 z m 9.551642,-6.83484 c -2.393805,-2.15799 -0.843517,-5.839999 2.458896,-5.839999 1.17991,0 2.987168,1.907552 2.987168,3.152943 0,3.095017 -3.227229,4.687314 -5.446064,2.687056 z m 4.020608,-0.545456 c 1.660154,-1.66015 0.512061,-4.654543 -1.784614,-4.654543 -1.1841,0 -2.86993,1.50167 -2.86993,2.556421 0,2.505988 2.927194,3.825475 4.654544,2.098122 z M 118.99549,14.572092 c -0.53359,-2.838624 -8.21099,-6.9130224 -15.02128,-7.9717954 -4.095867,-0.636771 -4.005987,-0.101208 0.27209,1.621304 4.32311,1.74064 9.22552,4.1589014 12.30468,6.0696564 1.144,0.709903 2.206,1.297505 2.36,1.305783 0.154,0.0083 0.19203,-0.452948 0.0845,-1.024948 z M 22.630992,10.103589 c 1.936,-0.9658934 4.221635,-2.0199144 5.079188,-2.3422724 1.457248,-0.547786 1.509552,-0.605045 0.8,-0.875793 -1.398061,-0.533465 -5.754294,-0.108439 -7.487354,0.730522 -1.672195,0.809495 -3.771456,2.7751304 -4.721762,4.4212044 l -0.569928,0.987202 1.689928,-0.582348 c 0.92946,-0.320291 3.273928,-1.372623 5.209928,-2.338515 z M 113.04935,8.2443356 c -1.26913,-1.084945 -3.26217,-1.791434 -5.77837,-2.04831 l -1.76,-0.179676 2.72,0.914915 c 1.496,0.503203 3.368,1.212073 4.16,1.575267 1.89974,0.871179 1.95733,0.848243 0.65837,-0.262196 z"
     id="path26"
     inkscape:connector-curvature="0" />
  <path
     style="fill:#000000;fill-opacity:1;stroke-width:0.02209709"
     d="m 59.622001,62.796289 c -0.12677,-1.670493 -0.46285,-3.142585 -1.058144,-4.634864 -0.185079,-0.463952 -0.672642,-1.460442 -0.924399,-1.889301 -1.309235,-2.230228 -3.148178,-4.154009 -5.766846,-6.032893 -1.339229,-0.960892 -1.882969,-1.605714 -2.760032,-3.273122 -0.675917,-1.285001 -0.944352,-1.95506 -1.054995,-2.633436 -0.05406,-0.331461 -0.06293,-1.391277 -0.02103,-2.512043 0.103216,-2.76049 0.167895,-7.668778 0.125791,-9.545942 -0.02868,-1.27863 -0.06913,-1.864956 -0.16844,-2.441728 -0.02538,-0.147421 -0.032,-0.406484 -0.03075,-1.204291 l 0.0016,-1.016466 0.06565,0.187825 c 0.276485,0.790991 0.54709,1.863937 0.68166,2.702772 0.148165,0.923581 0.200593,1.622412 0.214992,2.865694 0.0126,1.088075 -0.0011,1.562415 -0.09301,3.226175 -0.149052,2.697498 -0.206775,4.105727 -0.224174,5.469029 -0.02215,1.735688 0.04926,2.559706 0.258988,2.98852 0.138064,0.282288 0.287557,0.323296 0.716696,0.196598 0.847344,-0.25017 4.243453,-1.031919 5.66917,-1.304983 2.262698,-0.433371 4.440372,-0.708831 6.649956,-0.84117 1.096934,-0.0657 1.937941,-0.08345 3.358757,-0.0709 1.310693,0.01158 1.630457,0.0215 2.629553,0.08159 3.438765,0.206837 7.038658,0.761649 11.181126,1.723221 1.153583,0.267775 1.92303,0.42015 2.121637,0.42015 h 0.086 l 0.0653,-0.204398 c 0.09703,-0.303723 0.329647,-1.148035 0.543363,-1.972165 0.577006,-2.225063 0.631424,-2.886618 0.365459,-4.442842 -0.125405,-0.733777 -0.176045,-1.444373 -0.176275,-2.473547 -4.64e-4,-2.067697 0.25866,-4.414944 0.676927,-6.131941 0.305534,-1.25422 1.19423,-3.477287 2.173058,-5.435884 0.988783,-1.97852 1.616919,-2.888962 3.045248,-4.413893 l 0.274239,-0.292786 h 0.319797 0.319798 l -0.08458,0.09652 c -0.705854,0.805501 -0.99718,1.157655 -1.391703,1.682291 -1.729493,2.299862 -3.045087,4.94632 -3.883128,7.811321 -0.338753,1.158094 -0.502952,2.095397 -0.598071,3.414 -0.07349,1.018751 -0.106844,2.207967 -0.145341,5.181766 -0.06089,4.703328 -0.159402,5.388457 -1.070763,7.446719 -0.709666,1.602746 -1.554647,2.93967 -2.517773,3.983603 -0.348332,0.37756 -0.674507,0.674986 -1.241008,1.131634 -1.736829,1.400034 -2.993738,2.639691 -4.055476,3.999811 -1.879996,2.408335 -2.987763,5.177217 -3.299813,8.247939 -0.01884,0.18545 -0.03426,0.352006 -0.03426,0.370126 0,0.02757 -0.04869,0.03295 -0.298311,0.03295 -0.297021,0 -0.29831,-2.21e-4 -0.29831,-0.0511 0,-0.121576 0.07156,-0.81055 0.123217,-1.186335 0.502592,-3.656125 2.139571,-6.990891 4.673852,-9.521326 0.570563,-0.569696 1.039688,-0.97556 1.765765,-1.527655 0.490744,-0.373154 0.832913,-0.663662 1.298531,-1.102479 1.408407,-1.327335 2.752159,-3.015128 2.87303,-3.608609 0.03629,-0.17818 -0.02358,-0.249465 -0.337716,-0.402077 -0.845561,-0.410795 -3.446741,-0.97525 -7.28099,-1.579974 -1.60275,-0.25278 -2.568727,-0.357956 -4.264738,-0.464349 -1.596256,-0.100135 -2.76528,-0.13351 -4.684582,-0.133744 -2.638211,-3.1e-4 -4.45961,0.09161 -5.955165,0.30058 -2.066228,0.288705 -6.714446,1.327621 -8.097418,1.809842 -0.460249,0.16048 -0.55624,0.242959 -0.572069,0.491547 -0.01189,0.18669 0.02464,0.347989 0.130298,0.575285 0.334217,0.719019 1.285743,1.760242 2.561927,2.803426 0.164071,0.134116 0.551874,0.435827 0.861786,0.67047 1.040796,0.788015 1.632978,1.28952 2.361017,1.99949 2.447318,2.38658 3.92373,5.180348 4.676864,8.849883 0.130531,0.63599 0.29827,1.77589 0.298338,2.027408 1.4e-5,0.04959 -9.59e-4,0.04972 -0.371374,0.04972 h -0.371388 z"
     id="path4943"
     inkscape:connector-curvature="0" />
</svg>
